<svg width="334" height="125" viewBox="0 0 334 125" fill="none" xmlns="http://www.w3.org/2000/svg">
<path d="M119 41.1602L129 15.4902H133.77L143.77 41.1602H138.34L136.25 35.6302H126.25L124.16 41.1602H119ZM129.53 27.1602L128 31.3002H134.71L133.13 27.1202C132.98 26.7502 132.81 26.2702 132.62 25.6702L132 23.7402C131.76 23.0602 131.56 22.4102 131.39 21.8002C131.1 22.7002 130.79 23.6302 130.47 24.5902C130.15 25.5502 129.83 26.4102 129.54 27.1902L129.53 27.1602Z" fill="white"/>
<path d="M154.48 41.5296C152.743 41.5566 151.032 41.0995 149.54 40.2096C148.097 39.3369 146.91 38.0984 146.1 36.6196C145.235 35.0356 144.798 33.2539 144.83 31.4496C144.8 29.6551 145.238 27.8836 146.1 26.3096C146.908 24.8287 148.095 23.5896 149.54 22.7196C151.032 21.8296 152.743 21.3725 154.48 21.3996C156.116 21.3918 157.736 21.7327 159.23 22.3996C160.563 22.9443 161.722 23.8434 162.58 24.9996L159.83 28.2996C159.266 27.5407 158.538 26.9187 157.7 26.4796C156.863 25.997 155.916 25.7386 154.95 25.7296C153.987 25.7113 153.039 25.9718 152.22 26.4796C151.431 26.9695 150.786 27.6595 150.35 28.4796C149.888 29.3753 149.654 30.3716 149.67 31.3796C149.652 32.3869 149.893 33.382 150.37 34.2696C150.818 35.0941 151.477 35.7844 152.28 36.2696C153.093 36.7737 154.034 37.034 154.99 37.0196C155.91 37.0286 156.817 36.8087 157.63 36.3796C158.475 35.9225 159.223 35.3042 159.83 34.5596L162.58 37.8596C161.668 39.0007 160.481 39.8918 159.13 40.4496C157.674 41.1357 156.089 41.5039 154.48 41.5296Z" fill="white"/>
<path d="M173.22 41.5296C171.662 41.5478 170.137 41.087 168.85 40.2096C167.528 39.2956 166.462 38.0601 165.75 36.6196C164.961 35.0121 164.567 33.2398 164.6 31.4496C164.558 29.6393 164.953 27.8455 165.75 26.2196C166.468 24.7781 167.559 23.5557 168.91 22.6796C170.261 21.8166 171.837 21.3714 173.44 21.3996C174.686 21.3699 175.92 21.6518 177.03 22.2196C178.011 22.728 178.855 23.4655 179.49 24.3696V21.7996H184.49V41.1596H179.49V38.5596C178.767 39.4524 177.859 40.1789 176.83 40.6896C175.713 41.2593 174.474 41.5477 173.22 41.5296ZM174.57 37.1696C175.256 37.1925 175.938 37.0626 176.568 36.7893C177.197 36.516 177.758 36.1063 178.21 35.5896C179.172 34.4303 179.667 32.9544 179.6 31.4496C179.669 29.9415 179.173 28.4619 178.21 27.2996C177.758 26.7829 177.197 26.3731 176.568 26.0999C175.938 25.8266 175.256 25.6967 174.57 25.7196C173.895 25.7001 173.224 25.8319 172.606 26.1053C171.988 26.3787 171.44 26.7867 171 27.2996C170.039 28.4629 169.547 29.9427 169.62 31.4496C169.549 32.9532 170.041 34.4293 171 35.5896C171.44 36.1025 171.988 36.5105 172.606 36.7839C173.224 37.0573 173.895 37.1891 174.57 37.1696Z" fill="white"/>
<path d="M197.35 41.53C195.726 41.5564 194.129 41.1043 192.76 40.23C191.4 39.3443 190.305 38.1073 189.59 36.65C188.8 35.0429 188.406 33.2703 188.44 31.48C188.405 29.6767 188.799 27.891 189.59 26.27C190.309 24.8185 191.404 23.5859 192.76 22.7C194.129 21.8257 195.726 21.3736 197.35 21.4C198.506 21.397 199.649 21.6319 200.71 22.09C201.687 22.5017 202.566 23.115 203.29 23.89V14H208.29V41.16H203.52L203.44 38.85C202.727 39.6726 201.838 40.3252 200.84 40.76C199.747 41.2683 198.556 41.5311 197.35 41.53ZM198.45 37.35C199.139 37.3718 199.824 37.2363 200.453 36.9539C201.082 36.6715 201.639 36.2495 202.08 35.72C203.045 34.5236 203.54 33.0156 203.47 31.48C203.543 29.9348 203.049 28.4161 202.08 27.21C201.624 26.6978 201.065 26.288 200.439 26.0073C199.814 25.7266 199.136 25.5815 198.45 25.5815C197.764 25.5815 197.086 25.7266 196.461 26.0073C195.835 26.288 195.276 26.6978 194.82 27.21C193.851 28.4161 193.357 29.9348 193.43 31.48C193.361 33.0156 193.855 34.5236 194.82 35.72C195.262 36.2495 195.818 36.6715 196.447 36.9539C197.076 37.2363 197.761 37.3718 198.45 37.35Z" fill="white"/>
<path d="M222.55 41.5305C220.648 41.5719 218.766 41.1316 217.08 40.2505C215.563 39.4349 214.3 38.217 213.43 36.7305C212.542 35.1653 212.093 33.3896 212.13 31.5905C212.092 29.7453 212.526 27.9211 213.39 26.2905C214.207 24.7947 215.413 23.5475 216.88 22.6805C218.434 21.7802 220.205 21.3236 222 21.3605C223.622 21.3341 225.219 21.7586 226.614 22.5867C228.009 23.4148 229.147 24.6139 229.9 26.0505C230.694 27.5756 231.073 29.2826 231 31.0005V32.5805H217C217.216 33.8974 217.932 35.0798 219 35.8805C220.177 36.7251 221.603 37.1512 223.05 37.0905C223.868 37.1027 224.681 36.9672 225.45 36.6905C226.298 36.3422 227.085 35.8593 227.78 35.2605L230.2 38.6305C229.141 39.5656 227.917 40.2947 226.59 40.7805C225.298 41.2674 223.93 41.5214 222.55 41.5305ZM222 25.6905C219.24 25.6905 217.58 26.9305 217 29.4305H226.17V29.2805C226.145 28.7836 226.016 28.2974 225.793 27.8531C225.569 27.4088 225.254 27.0162 224.87 26.7005C224.07 26.022 223.048 25.6624 222 25.6905Z" fill="white"/>
<path d="M234.83 41.16V21.8H239.67L239.75 24.55C240.432 23.6226 241.305 22.852 242.31 22.29C243.295 21.7305 244.407 21.4343 245.54 21.43C246.766 21.3854 247.979 21.6981 249.03 22.33C250.041 23.0414 250.829 24.0266 251.3 25.17C252.008 24.0435 252.987 23.1116 254.146 22.4585C255.306 21.8055 256.61 21.4519 257.94 21.43C262.36 21.43 264.573 24.0966 264.58 29.43V41.16H259.58V29.79C259.58 27.11 258.48 25.79 256.28 25.79C255.2 25.7563 254.15 26.1518 253.36 26.89C252.985 27.2408 252.688 27.6674 252.49 28.1415C252.292 28.6155 252.196 29.1263 252.21 29.64V41.16H247.21V29.72C247.279 28.6754 246.982 27.6395 246.37 26.79C246.071 26.4476 245.697 26.1792 245.278 26.0057C244.858 25.8322 244.403 25.7583 243.95 25.79C243.421 25.7737 242.894 25.8625 242.4 26.0513C241.905 26.2402 241.454 26.5252 241.07 26.89C240.7 27.2302 240.406 27.6449 240.208 28.1068C240.01 28.5687 239.912 29.0674 239.92 29.57V41.16H234.83Z" fill="white"/>
<path d="M272.13 49.5998L275.73 41.2698L266.92 21.7998H272.61L277.52 33.3898C277.74 33.9031 277.96 34.5031 278.18 35.1898C278.28 34.9198 278.37 34.6498 278.46 34.3998C278.55 34.1498 278.63 33.8698 278.73 33.5698L283 21.7998H288.76L280.62 41.1598L277.28 49.5998H272.13Z" fill="white"/>
<path d="M133.17 75.6298C130.844 75.6884 128.545 75.1257 126.51 73.9998C124.588 72.8865 123.007 71.268 121.94 69.3198C120.808 67.1955 120.24 64.8164 120.29 62.4098C120.273 60.6715 120.6 58.947 121.253 57.3355C121.905 55.724 122.869 54.2573 124.09 53.0198C125.281 51.8179 126.703 50.869 128.27 50.2298C129.917 49.5573 131.681 49.2174 133.46 49.2298C135.289 49.2274 137.097 49.6196 138.76 50.3798C140.349 51.0762 141.75 52.1385 142.85 53.4798L139.51 57.1898C138.7 56.3065 137.746 55.5661 136.69 54.9998C135.677 54.4853 134.556 54.2212 133.42 54.2298C132.057 54.2078 130.713 54.5608 129.537 55.2504C128.361 55.9399 127.397 56.9395 126.75 58.1398C126.054 59.4531 125.71 60.9241 125.75 62.4098C125.713 63.9208 126.057 65.4168 126.75 66.7598C127.401 67.9738 128.396 68.9687 129.61 69.6198C130.927 70.3069 132.395 70.6509 133.88 70.6198C135.046 70.6242 136.199 70.3751 137.26 69.8898C138.281 69.4328 139.21 68.7922 140 67.9998L142.57 72.1398C141.886 72.8727 141.081 73.4817 140.19 73.9398C139.14 74.4963 138.025 74.9196 136.87 75.1998C135.66 75.4998 134.417 75.6443 133.17 75.6298Z" fill="white"/>
<path d="M146.48 75.2699V55.8999H151.32L151.4 59.0899C152.025 58.0466 152.884 57.1633 153.91 56.5099C154.88 55.8581 156.022 55.5099 157.19 55.5099C157.602 55.5078 158.013 55.5379 158.42 55.5999C158.761 55.6459 159.096 55.7263 159.42 55.8399L158 61.3299C157.684 61.1638 157.348 61.0395 157 60.9599C156.589 60.8689 156.17 60.8219 155.75 60.8199C155.194 60.8117 154.641 60.9156 154.126 61.1251C153.611 61.3347 153.143 61.6458 152.75 62.0399C152.346 62.4464 152.03 62.931 151.82 63.4641C151.611 63.9971 151.512 64.5673 151.53 65.1399V75.2699H146.48Z" fill="white"/>
<path d="M165.15 83.7004L168.74 75.3804L159.94 55.9004H165.63L170.54 67.4904C170.76 68.0037 170.98 68.6037 171.2 69.2904C171.3 69.0204 171.39 68.7604 171.47 68.5004L171.75 67.6704L176 55.9004H181.76L173.61 75.2704L170.28 83.7004H165.15Z" fill="white"/>
<path d="M184.51 83.3395V55.8995H189.35L189.43 58.2495C190.133 57.3932 191.022 56.7091 192.03 56.2495C193.122 55.7391 194.314 55.4761 195.52 55.4795C197.113 55.4755 198.671 55.9416 200 56.8195C201.345 57.6972 202.421 58.9291 203.11 60.3795C203.861 61.9996 204.25 63.7638 204.25 65.5495C204.25 67.3352 203.861 69.0995 203.11 70.7195C202.419 72.171 201.343 73.4056 200 74.2895C198.843 75.0308 197.52 75.4728 196.15 75.5757C194.779 75.6787 193.405 75.4395 192.15 74.8795C191.163 74.466 190.273 73.8493 189.54 73.0695V83.3395H184.51ZM194.42 71.2695C195.106 71.292 195.789 71.1599 196.417 70.8829C197.046 70.606 197.604 70.1913 198.05 69.6695C198.951 68.4907 199.439 67.0482 199.439 65.5645C199.439 64.0808 198.951 62.6383 198.05 61.4595C197.604 60.9378 197.046 60.5231 196.417 60.2461C195.789 59.9692 195.106 59.837 194.42 59.8595C193.734 59.8367 193.052 59.9665 192.422 60.2398C191.793 60.5131 191.232 60.9229 190.78 61.4395C189.82 62.5882 189.324 64.0541 189.39 65.5495C189.322 67.0483 189.818 68.5183 190.78 69.6695C191.227 70.1926 191.787 70.6081 192.417 70.8851C193.048 71.1621 193.732 71.2935 194.42 71.2695Z" fill="white"/>
<path d="M210.19 75.27V60.41H206.52V55.9H210.19V51H215.19V55.9H219.26V60.41H215.19V75.27H210.19Z" fill="white"/>
<path d="M231.42 75.63C229.577 75.666 227.756 75.2177 226.14 74.3301C224.63 73.4897 223.376 72.256 222.51 70.7601C221.613 69.1723 221.157 67.3734 221.19 65.5501C221.158 63.7395 221.614 61.9537 222.51 60.3801C223.373 58.8792 224.627 57.6416 226.14 56.8C227.756 55.9124 229.577 55.4641 231.42 55.5C233.241 55.4703 235.037 55.9186 236.63 56.8C238.143 57.6416 239.398 58.8792 240.26 60.3801C241.156 61.9537 241.612 63.7395 241.58 65.5501C241.613 67.3734 241.157 69.1723 240.26 70.7601C239.395 72.256 238.14 73.4897 236.63 74.3301C235.037 75.2115 233.241 75.6598 231.42 75.63ZM231.42 71.27C232.354 71.2829 233.272 71.0222 234.06 70.52C234.837 70.0304 235.466 69.3392 235.88 68.52C236.318 67.6061 236.537 66.6031 236.52 65.59C236.535 64.5739 236.316 63.5679 235.88 62.6501C235.469 61.8289 234.839 61.1369 234.06 60.6501C233.269 60.1551 232.353 59.8982 231.42 59.91C230.475 59.8984 229.546 60.155 228.74 60.6501C227.96 61.1386 227.328 61.8299 226.91 62.6501C226.458 63.563 226.231 64.5713 226.25 65.59C226.23 66.6057 226.457 67.611 226.91 68.52C227.331 69.3376 227.963 70.028 228.74 70.52C229.542 71.0238 230.473 71.2843 231.42 71.27Z" fill="white"/>
<path d="M122 109.37V83.7002H139.16V88.3902H127.16V94.0002H137.36V98.5502H127.16V104.67H139.4V109.37H122Z" fill="white"/>
<path d="M144.39 109.37V90.0002H149.23L149.3 92.7502C149.989 91.8277 150.864 91.061 151.87 90.5002C152.852 89.9351 153.966 89.6385 155.1 89.6402C156.335 89.5593 157.563 89.8798 158.601 90.5537C159.639 91.2277 160.431 92.2192 160.86 93.3802C161.565 92.2345 162.558 91.2933 163.74 90.6502C164.884 89.9941 166.181 89.6493 167.5 89.6502C171.92 89.6502 174.13 92.3169 174.13 97.6502V109.39H169.13V98.0002C169.13 95.3335 168.03 94.0002 165.83 94.0002C164.749 93.9666 163.7 94.3621 162.91 95.1002C162.535 95.4538 162.239 95.8823 162.041 96.3578C161.843 96.8333 161.747 97.3452 161.76 97.8602V109.41H156.76V97.9302C156.828 96.8826 156.531 95.8436 155.92 94.9902C155.618 94.6514 155.244 94.3854 154.825 94.2122C154.406 94.039 153.953 93.9631 153.5 93.9902C152.971 93.9739 152.444 94.0628 151.95 94.2516C151.455 94.4404 151.003 94.7255 150.62 95.0902C150.249 95.4303 149.954 95.8448 149.754 96.3066C149.554 96.7683 149.454 97.2671 149.46 97.7702V109.4L144.39 109.37Z" fill="white"/>
<path d="M188.25 109.74C186.35 109.781 184.47 109.337 182.79 108.45C181.269 107.64 180.004 106.421 179.14 104.93C178.254 103.367 177.805 101.595 177.84 99.7996C177.8 97.9542 178.234 96.1294 179.1 94.4995C179.917 93.001 181.122 91.7505 182.59 90.8795C184.141 89.9805 185.908 89.524 187.7 89.5595C189.324 89.5368 190.922 89.9639 192.318 90.7934C193.714 91.6229 194.854 92.8226 195.61 94.2596C196.399 95.7857 196.772 97.4932 196.69 99.2095V100.79H182.72C182.944 102.104 183.659 103.283 184.72 104.09C185.903 104.929 187.33 105.354 188.78 105.3C189.598 105.309 190.411 105.17 191.18 104.89C192.032 104.549 192.82 104.065 193.51 103.46L195.93 106.84C194.87 107.771 193.646 108.497 192.32 108.98C191.019 109.473 189.641 109.73 188.25 109.74ZM187.74 93.8895C184.98 93.8895 183.31 95.1395 182.74 97.6295H191.91V97.4895C191.886 96.9909 191.759 96.5028 191.535 96.0567C191.311 95.6106 190.996 95.2164 190.61 94.8996C189.807 94.226 188.787 93.867 187.74 93.8895Z" fill="white"/>
<path d="M200.58 109.37V90.0005H205.42L205.49 93.1905C206.118 92.1494 206.977 91.2667 208 90.6105C208.976 89.9633 210.119 89.6157 211.29 89.6105C211.702 89.6084 212.113 89.6384 212.52 89.7005C212.86 89.7477 213.195 89.8281 213.52 89.9405L212.16 95.4405C211.843 95.2779 211.507 95.1537 211.16 95.0705C210.753 94.9795 210.337 94.9325 209.92 94.9305C209.363 94.9219 208.81 95.0265 208.294 95.2379C207.778 95.4494 207.311 95.7632 206.92 96.1605C206.514 96.5658 206.196 97.05 205.984 97.5831C205.773 98.1163 205.673 98.6871 205.69 99.2605V109.38L200.58 109.37Z" fill="white"/>
<path d="M224.71 117.8C223.198 117.799 221.695 117.573 220.25 117.13C218.954 116.762 217.732 116.169 216.64 115.38L218.4 111.75C219.219 112.34 220.132 112.786 221.1 113.07C222.127 113.389 223.195 113.551 224.27 113.55C228.057 113.55 229.95 111.764 229.95 108.19V106.69C229.271 107.546 228.401 108.231 227.41 108.69C226.342 109.213 225.169 109.483 223.98 109.48C222.298 109.508 220.641 109.072 219.19 108.22C217.789 107.378 216.641 106.172 215.87 104.73C215.041 103.167 214.625 101.419 214.66 99.6503C214.629 97.8557 215.038 96.0808 215.85 94.4803C216.602 93.0193 217.735 91.7891 219.13 90.9203C220.547 90.0634 222.175 89.62 223.83 89.6403C225.078 89.6276 226.312 89.8977 227.44 90.4303C228.445 90.8741 229.35 91.517 230.1 92.3203L230.17 90.0403H235V107.98C235 111.13 234.09 113.57 232.27 115.28C230.175 117.074 227.462 117.978 224.71 117.8ZM224.86 105.33C225.574 105.357 226.284 105.231 226.945 104.96C227.606 104.689 228.201 104.28 228.69 103.76C229.634 102.589 230.149 101.13 230.149 99.6253C230.149 98.1209 229.634 96.6617 228.69 95.4903C228.209 94.9633 227.619 94.5472 226.961 94.2709C226.303 93.9946 225.593 93.8648 224.88 93.8903C224.173 93.8664 223.469 93.9993 222.819 94.2793C222.169 94.5594 221.589 94.9798 221.12 95.5103C220.124 96.6537 219.605 98.1356 219.67 99.6503C219.602 101.157 220.122 102.63 221.12 103.76C221.594 104.276 222.173 104.683 222.818 104.954C223.464 105.225 224.16 105.353 224.86 105.33Z" fill="white"/>
<path d="M249.32 109.74C247.417 109.781 245.534 109.337 243.85 108.45C242.331 107.64 241.07 106.42 240.21 104.93C239.32 103.368 238.868 101.596 238.9 99.7996C238.863 97.9533 239.3 96.1285 240.17 94.4996C240.98 92.9994 242.183 91.748 243.65 90.8796C245.204 89.9802 246.975 89.5237 248.77 89.5596C250.418 89.5405 252.038 89.9803 253.45 90.8296C254.815 91.6591 255.928 92.8449 256.67 94.2596C257.459 95.7858 257.832 97.4933 257.75 99.2096V100.79H243.78C244.005 102.103 244.72 103.282 245.78 104.09C246.959 104.93 248.383 105.356 249.83 105.3C250.648 105.309 251.461 105.17 252.23 104.89C253.083 104.551 253.872 104.068 254.56 103.46L256.98 106.84C255.922 107.774 254.697 108.5 253.37 108.98C252.076 109.471 250.704 109.728 249.32 109.74ZM248.81 93.8896C246.037 93.8896 244.37 95.1362 243.81 97.6296H253V97.4896C252.974 96.9903 252.845 96.502 252.619 96.0559C252.394 95.6098 252.077 95.2159 251.69 94.8996C250.886 94.2221 249.861 93.8628 248.81 93.8896Z" fill="white"/>
<path d="M261.64 109.37V89.9996H266.48L266.56 92.6096C267.264 91.695 268.167 90.9529 269.2 90.4396C270.266 89.8879 271.45 89.5998 272.65 89.5996C277.09 89.5996 279.313 92.2396 279.32 97.5196V109.37H274.32V97.8896C274.32 95.1296 273.16 93.7896 270.84 93.8896C269.735 93.851 268.658 94.2457 267.84 94.9896C267.457 95.3298 267.152 95.7492 266.946 96.2188C266.741 96.6885 266.64 97.1971 266.65 97.7096V109.37H261.64Z" fill="white"/>
<path d="M292.71 109.74C290.972 109.763 289.261 109.303 287.77 108.41C286.325 107.54 285.138 106.301 284.33 104.82C283.496 103.229 283.06 101.461 283.06 99.6648C283.06 97.869 283.496 96.1001 284.33 94.5098C285.14 93.0309 286.327 91.7925 287.77 90.9198C289.262 90.0298 290.973 89.5727 292.71 89.5998C294.346 89.5968 295.964 89.9375 297.46 90.5998C298.803 91.1665 299.962 92.0942 300.81 93.2798L298.06 96.5798C297.495 95.8241 296.767 95.2054 295.93 94.7698C295.094 94.2845 294.147 94.0228 293.18 94.0098C292.216 93.9974 291.269 94.2611 290.45 94.7698C289.662 95.2611 289.017 95.9508 288.58 96.7698C288.119 97.666 287.885 98.6619 287.9 99.6698C287.882 100.68 288.123 101.679 288.6 102.57C289.05 103.393 289.708 104.083 290.51 104.57C291.323 105.074 292.263 105.334 293.22 105.32C294.139 105.329 295.047 105.109 295.86 104.68C296.703 104.223 297.45 103.609 298.06 102.87L300.81 106.17C299.897 107.308 298.71 108.196 297.36 108.75C295.897 109.405 294.312 109.742 292.71 109.74Z" fill="white"/>
<path d="M306.39 117.8L309.98 109.48L301.18 90H306.86L311.78 101.59C312 102.11 312.22 102.71 312.44 103.39C312.53 103.12 312.63 102.86 312.71 102.6C312.79 102.34 312.89 102.07 312.99 101.78L317.21 90H323L314.86 109.37L311.52 117.8H306.39Z" fill="white"/>
<path d="M106.62 21.2998V109.37H75.34V46.7998H12.76V15.5098H100.83C101.59 15.5098 102.343 15.6595 103.046 15.9505C103.748 16.2415 104.387 16.668 104.924 17.2056C105.462 17.7433 105.888 18.3816 106.179 19.084C106.47 19.7865 106.62 20.5394 106.62 21.2998ZM12.76 64.2998V78.0898H44.05V109.37H59.69V62.4398H12.76V64.2998Z" fill="url(#paint0_linear_5_29)"/>
<path d="M106.63 15.5098H75.3401V46.7998H106.63V15.5098Z" fill="#BAEDB2"/>
<defs>
<linearGradient id="paint0_linear_5_29" x1="99.42" y1="22.7198" x2="36.58" y2="85.5598" gradientUnits="userSpaceOnUse">
<stop stop-color="#9379D5"/>
<stop offset="1" stop-color="#554FA8"/>
</linearGradient>
</defs>
</svg>
