<svg width="29" height="20" viewBox="0 0 29 20" fill="none" xmlns="http://www.w3.org/2000/svg">
<path d="M27.0001 13.52L14.7101 1.18001C14.6171 1.08629 14.5065 1.01189 14.3847 0.961123C14.2628 0.910355 14.1321 0.884216 14.0001 0.884216C13.8681 0.884216 13.7374 0.910355 13.6155 0.961123C13.4936 1.01189 13.383 1.08629 13.2901 1.18001L1.00008 13.52C0.6956 13.8238 0.454035 14.1846 0.289213 14.5818C0.124391 14.9791 0.0395508 15.4049 0.0395508 15.835C0.0395508 16.2651 0.124391 16.691 0.289213 17.0882C0.454035 17.4854 0.6956 17.8463 1.00008 18.15C1.62345 18.746 2.45265 19.0786 3.31508 19.0786C4.1775 19.0786 5.0067 18.746 5.63008 18.15L14.0001 9.74002L22.4101 18.15C22.7044 18.492 23.0663 18.7693 23.473 18.9646C23.8798 19.1599 24.3225 19.2689 24.7734 19.2847C25.2243 19.3006 25.6736 19.223 26.0931 19.0568C26.5125 18.8906 26.893 18.6394 27.2107 18.319C27.5283 17.9985 27.7762 17.6159 27.9388 17.195C28.1013 16.7741 28.1751 16.3242 28.1553 15.8734C28.1355 15.4227 28.0227 14.9809 27.8238 14.5759C27.625 14.1709 27.3446 13.8114 27.0001 13.52Z" fill="#9DEAAB"/>
</svg>
