<svg width="65" height="65" viewBox="0 0 65 65" fill="none" xmlns="http://www.w3.org/2000/svg">
<g clip-path="url(#clip0_630_49)">
<path d="M65 32.5009C65 14.5502 50.4492 0.000549316 32.5005 0.000549316C14.5509 0.000549316 0 14.5502 0 32.5009C0 50.449 14.5509 64.9998 32.5005 64.9998C50.4492 64.9998 65 50.449 65 32.5009Z" fill="#9DEAAB"/>
<path d="M18.1072 22.7417C18.1072 20.9188 18.6924 19.0716 19.8631 17.2005C21.0333 15.3295 22.7417 13.7799 24.9869 12.5516C27.2322 11.3237 29.8517 10.7094 32.8453 10.7094C35.6276 10.7094 38.0843 11.2231 40.2144 12.2494C42.3446 13.2762 43.9898 14.6724 45.1511 16.4377C46.312 18.2035 46.8926 20.1222 46.8926 22.1948C46.8926 23.8261 46.5616 25.256 45.8995 26.4838C45.2373 27.7121 44.4503 28.7723 43.539 29.6645C42.6273 30.5569 40.9914 32.0586 38.6311 34.1696C37.9785 34.7646 37.4553 35.2877 37.0623 35.7385C36.6687 36.1896 36.3759 36.6021 36.1843 36.9761C35.9922 37.3504 35.8433 37.7246 35.7381 38.0988C35.6323 38.4729 35.4741 39.1305 35.2632 40.0706C34.8984 42.0666 33.7564 43.0644 31.8377 43.0644C30.8397 43.0644 30 42.7383 29.319 42.0856C28.6376 41.4334 28.2971 40.4642 28.2971 39.1783C28.2971 37.5663 28.5463 36.1702 29.0456 34.9901C29.5445 33.8097 30.2064 32.7734 31.0318 31.8813C31.8566 30.9889 32.9699 29.9287 34.3709 28.7004C35.5988 27.6259 36.4866 26.815 37.0336 26.268C37.5805 25.7211 38.041 25.1122 38.4153 24.4401C38.7895 23.7685 38.9767 23.0395 38.9767 22.2524C38.9767 20.7173 38.4055 19.422 37.2639 18.3664C36.1219 17.3112 34.6489 16.7831 32.8453 16.7831C30.734 16.7831 29.1796 17.3157 28.182 18.3808C27.184 19.4459 26.3398 21.0147 25.6488 23.0872C24.9963 25.256 23.7584 26.3399 21.9355 26.3399C20.8604 26.3399 19.9537 25.9612 19.2152 25.2029C18.4765 24.4449 18.1072 23.6246 18.1072 22.7417ZM32.1545 54.2907C30.9837 54.2907 29.9618 53.9115 29.0888 53.1536C28.2154 52.3959 27.779 51.3356 27.779 49.9729C27.779 48.7638 28.2008 47.747 29.0456 46.9216C29.8898 46.0967 30.926 45.6839 32.1544 45.6839C33.3634 45.6839 34.3803 46.0967 35.2056 46.9216C36.0305 47.747 36.4434 48.7638 36.4434 49.9729C36.4434 51.3164 36.0116 52.3719 35.148 53.1393C34.2844 53.9068 33.2867 54.2907 32.1545 54.2907Z" fill="white"/>
</g>
<defs>
<clipPath id="clip0_630_49">
<rect width="65" height="65" fill="white"/>
</clipPath>
</defs>
</svg>
